PathFileType	4	(X/Y/Z)	Kaydara	
DataRate	CameraRate	NumFrames	NumMarkers	Units	OrigDataRate	OrigDataStartFrame	OrigNumFrames	
60.00	60.00	4	74	mm	60.00	407	151	
Frame#	Time	Z_lasi			Z_rasi			Z_rpsi			Z_lpsi			Z_fneck			Z_bneck			Z_fhead			Z_rhead			Z_lhead			Z_rshld			Z_relbtop			Z_relbext			Z_relblow			Z_rwrext			Z_rwrtop			Z_rwrlow			Z_lshld			Z_lelbext			Z_lelblow			Z_lelbtop			Z_lwrext			Z_lwrtop			Z_lwrlow			Z_rtopleg			Z_ltopleg			Z_rkneefr			Z_rkneebk			Z_rkneeis			Z_lkneefr			Z_lknssbk			Z_lkneeis			Z_rankfr			Z_rankis			Z_rankbk			Z_lankfr			Z_lankbk			Z_lankis			A_lasi			A_rasi			A_rpsi			A_lpsi			A_fneck			A_bneck			A_fhead			A_rhead			A_lhead			A_rshld			A_relbtop			A_relbext			A_relblow			A_rwrext			A_rwrtop			A_rwrlow			A_lshld			A_lelbext			A_lelblow			A_lelbtop			A_lwrext			A_lwrtop			A_lwrlow			A_rtopleg			A_ltopleg			A_rkneefr			A_rkneebk			A_rkneeis			A_lkneefr			A_lknssbk			A_lkneeis			A_rankfr			A_rankis			A_rankbk			A_lankfr			A_lankbk			A_lankis			
		X1	Y1	Z1	X2	Y2	Z2	X3	Y3	Z3	X4	Y4	Z4	X5	Y5	Z5	X6	Y6	Z6	X7	Y7	Z7	X8	Y8	Z8	X9	Y9	Z9	X10	Y10	Z10	X11	Y11	Z11	X12	Y12	Z12	X13	Y13	Z13	X14	Y14	Z14	X15	Y15	Z15	X16	Y16	Z16	X17	Y17	Z17	X18	Y18	Z18	X19	Y19	Z19	X20	Y20	Z20	X21	Y21	Z21	X22	Y22	Z22	X23	Y23	Z23	X24	Y24	Z24	X25	Y25	Z25	X26	Y26	Z26	X27	Y27	Z27	X28	Y28	Z28	X29	Y29	Z29	X30	Y30	Z30	X31	Y31	Z31	X32	Y32	Z32	X33	Y33	Z33	X34	Y34	Z34	X35	Y35	Z35	X36	Y36	Z36	X37	Y37	Z37	X38	Y38	Z38	X39	Y39	Z39	X40	Y40	Z40	X41	Y41	Z41	X42	Y42	Z42	X43	Y43	Z43	X44	Y44	Z44	X45	Y45	Z45	X46	Y46	Z46	X47	Y47	Z47	X48	Y48	Z48	X49	Y49	Z49	X50	Y50	Z50	X51	Y51	Z51	X52	Y52	Z52	X53	Y53	Z53	X54	Y54	Z54	X55	Y55	Z55	X56	Y56	Z56	X57	Y57	Z57	X58	Y58	Z58	X59	Y59	Z59	X60	Y60	Z60	X61	Y61	Z61	X62	Y62	Z62	X63	Y63	Z63	X64	Y64	Z64	X65	Y65	Z65	X66	Y66	Z66	X67	Y67	Z67	X68	Y68	Z68	X69	Y69	Z69	X70	Y70	Z70	X71	Y71	Z71	X72	Y72	Z72	X73	Y73	Z73	X74	Y74	Z74	

57	6.767	-279.03219	1078.81424	691.19209	-318.49792	1089.54102	488.66611	-148.73174	1115.79453	415.82779	-91.42777	1098.10059	653.43033	-271.94620	1450.71808	588.21625	-154.46772	1507.38892	585.06691	-329.96597	1670.33127	565.95722	-177.91355	1647.98782	497.66609	-180.69118	1648.95340	645.41428	-220.55805	1442.44019	379.24099	-174.77215	1123.88626	290.74947	-161.94407	1103.85376	347.31682	-246.85513	1136.56021	314.94274	-288.75406	903.53508	271.49220	-326.17516	920.31837	291.93707	-311.79779	913.56331	332.82131	-161.16179	1438.52295	768.77121	-118.53984	1123.75412	765.94414	-175.28849	1145.70236	831.92879	-106.60491	1143.31093	834.15993	-248.77186	891.54617	823.73337	-234.76885	884.12025	868.33893	-189.59396	879.24255	857.00462	-196.61324	928.24905	364.03446	-192.29635	892.17545	728.94516	-256.84162	422.24422	404.98959	-186.03294	453.97606	357.65244	-195.18345	431.44279	480.79655	-220.49391	445.52124	676.26076	-114.18011	473.84003	667.40257	-206.90495	443.43044	584.18804	-207.21762	181.65327	378.12260	-184.83730	176.21952	440.50358	-130.83540	176.68346	371.74332	-154.45018	163.18211	670.37849	-96.13421	167.11775	615.46394	-174.15127	174.33241	600.70061	-999.75189	1035.41122	468.73405	-985.20798	1041.13449	627.91222	-1143.16269	1036.18492	651.77139	-1123.23471	1041.88400	468.99433	-1063.18886	1381.80176	564.10839	-1202.06833	1406.06522	553.97270	-1011.80496	1595.03830	570.99846	-1157.26318	1555.70709	653.91495	-1155.91370	1555.30792	490.75634	-1139.41605	1347.88406	742.72141	-1112.83363	1055.66788	773.70796	-1173.60046	1047.32712	751.41945	-1110.65964	1045.22079	715.59143	-1081.78551	809.45961	798.44582	-1039.84131	821.60080	784.51820	-1046.48148	821.41945	746.96968	-1108.72414	1351.46149	385.25063	-1129.98314	1039.89807	367.71523	-1061.37527	1051.11435	387.84004	-1088.55545	1048.06259	341.11412	-1029.56749	825.10056	377.97577	-1033.26027	825.52055	336.95053	-989.94431	837.45293	346.38424	-1082.88803	875.48630	730.14297	-1057.80113	892.69096	391.76991	-1034.76845	453.72452	635.12581	-1139.26918	483.91933	684.83185	-1125.28671	484.74564	565.87578	-1022.89574	466.98730	509.85725	-1105.00084	478.50391	412.75284	-1129.26651	478.10551	536.73096	-1099.19678	164.29882	658.44475	-1135.52979	161.30730	594.31721	-1179.60938	151.47932	665.50858	-1069.61220	165.77847	458.25130	-1130.01060	166.61089	421.93054	-1129.70726	172.11252	510.93575 
58	6.783	-278.76835	1078.83507	690.95116	-318.30280	1089.49570	488.46245	-148.49847	1115.71136	415.72567	-91.32538	1098.12431	653.21373	-271.69432	1450.55939	587.87197	-154.38280	1507.45041	584.69780	-330.55256	1669.84985	565.77847	-178.45741	1648.10043	497.27077	-180.87969	1649.13208	644.94019	-220.34868	1442.25845	378.89282	-174.50636	1123.60931	290.73967	-161.57892	1103.71185	347.26856	-246.58096	1136.30333	314.95289	-288.26311	903.19450	271.70946	-325.71842	919.98711	292.18977	-311.50944	913.39363	333.15105	-160.96039	1438.67783	768.45032	-118.68723	1123.84811	766.03561	-175.45301	1145.90492	831.97411	-106.78236	1143.47198	834.24728	-249.61292	892.04124	824.01741	-235.61640	884.61914	868.58177	-189.57447	879.07768	858.15010	-196.38920	928.14453	363.96572	-192.11519	892.21146	728.87016	-256.94105	422.21241	404.96304	-186.34922	454.23347	357.23423	-195.20119	431.39580	480.67436	-220.50026	445.51659	676.26450	-114.01980	473.74565	667.16850	-206.91095	443.37719	584.16847	-207.26194	181.61339	378.11337	-184.86740	176.19616	440.48542	-130.86619	176.63893	371.75587	-154.33188	163.09992	670.27870	-96.15082	167.10846	615.50056	-174.00139	174.28110	600.83305	-999.58794	1035.32921	468.77411	-985.02731	1041.13098	627.96207	-1142.87437	1036.23367	651.70616	-1123.05901	1041.87683	469.00513	-1062.84592	1381.91513	563.86814	-1201.89568	1405.69839	553.66970	-1012.05643	1595.46814	571.32652	-1157.56050	1555.24078	653.98018	-1155.88341	1555.31860	490.77721	-1139.17732	1348.00430	742.49260	-1112.57462	1055.76363	773.54874	-1173.35304	1047.41280	751.23665	-1110.29427	1045.23026	715.47867	-1081.58249	809.58427	798.42491	-1039.62555	821.68106	784.44962	-1046.35201	821.48300	746.87965	-1108.34946	1351.41144	384.97829	-1129.66698	1039.87595	367.48055	-1061.12114	1051.02966	387.73811	-1088.25638	1048.02963	341.01269	-1029.48105	825.04128	377.96062	-1033.13828	825.44098	336.96457	-989.83383	837.33757	346.41983	-1082.79289	875.48561	730.19737	-1057.71011	892.71942	391.79771	-1034.74541	453.71487	635.17876	-1139.28177	483.94585	684.83116	-1125.24292	484.72454	565.88135	-1022.90749	466.95320	509.86599	-1105.02258	478.49533	412.76665	-1129.24889	478.09128	536.70429	-1099.16428	164.31007	658.43933	-1135.49843	161.30440	594.32487	-1179.58450	151.48067	665.51826	-1069.62158	165.77812	458.24738	-1130.02144	166.61119	421.93478	-1129.71024	172.15139	510.93086 
59	6.800	-278.75334	1078.86230	690.82802	-318.08941	1089.46701	488.22777	-148.25096	1115.62080	415.57499	-91.42219	1098.18771	652.92465	-271.48315	1450.43854	587.45392	-154.27765	1507.52487	584.27944	-331.05469	1669.42978	565.52547	-178.94955	1648.24905	496.79550	-181.15566	1649.30435	644.49364	-220.09542	1442.07993	378.53024	-174.17084	1123.34511	290.71938	-161.29780	1103.51753	347.33677	-246.29637	1136.02882	314.96990	-287.79030	902.86133	271.94983	-325.27451	919.56612	292.34617	-310.93220	913.14217	333.29746	-160.88181	1438.77716	768.12416	-118.89590	1123.94463	766.10779	-175.68172	1146.13937	831.96930	-106.96299	1143.62030	834.28940	-250.32408	892.43729	824.19075	-236.32700	885.03128	868.71864	-189.90707	879.21394	858.56506	-196.18439	928.10631	363.87672	-191.92839	892.21832	728.79379	-256.97561	422.17476	404.90040	-186.18250	453.76331	357.49023	-195.09602	431.33530	480.53089	-220.47779	445.52540	676.21635	-113.94003	473.72066	667.04193	-206.88303	443.38375	584.20883	-207.27570	181.58779	378.11226	-184.84928	176.18338	440.47192	-130.88206	176.61173	371.70479	-154.30031	163.07529	670.24422	-96.14408	167.11378	615.48557	-174.00537	174.28539	600.82546	-999.43596	1035.26756	468.81702	-984.84810	1041.13853	628.02200	-1142.67204	1036.31645	651.66992	-1122.88780	1041.85707	468.99349	-1062.49954	1381.99402	563.64906	-1201.61423	1405.40161	553.31852	-1012.27524	1595.81116	571.63528	-1157.85904	1554.72809	654.04053	-1155.88753	1555.37643	490.87074	-1138.98773	1348.13126	742.28485	-1112.33818	1055.90836	773.39462	-1173.04008	1047.54044	751.05782	-1110.00732	1045.41061	715.33791	-1081.43425	809.77074	798.43658	-1039.45389	821.77498	784.41940	-1046.27197	821.58401	746.82495	-1108.00957	1351.36002	384.81678	-1129.35989	1039.82529	367.29618	-1060.83282	1050.98145	387.65491	-1087.94090	1047.96089	340.87673	-1029.46625	825.06401	377.95074	-1032.92831	825.34500	336.97357	-989.63806	837.22763	346.47469	-1082.74704	875.51704	730.21660	-1057.56973	892.67609	391.87984	-1034.71153	453.71208	635.22884	-1139.24828	483.93776	684.83749	-1125.22415	484.74670	565.89012	-1022.89726	466.94286	509.85710	-1104.99992	478.50246	412.76176	-1129.26758	478.09254	536.70879	-1099.15909	164.31446	658.45177	-1135.46516	161.33036	594.31149	-1179.61464	151.50353	665.50720	-1069.61647	165.77463	458.24696	-1130.00404	166.61196	421.92970	-1129.73076	172.14804	510.93132 
60	6.817	-278.51917	1078.94066	690.59433	-317.88076	1089.46411	488.06438	-147.96083	1115.57541	415.43354	-89.70352	1097.73743	653.50327	-271.26974	1450.34821	587.06505	-153.87630	1507.63870	583.70953	-331.35380	1668.96942	565.28870	-179.47132	1648.41415	496.28563	-181.52065	1649.39667	643.95103	-219.87181	1441.92795	378.15823	-173.83928	1123.12454	290.68966	-161.00666	1103.30612	347.37576	-245.94959	1135.75851	314.93155	-287.36710	902.55432	272.09967	-324.85023	919.23111	292.44267	-310.63641	912.82440	333.49236	-160.88268	1438.87146	767.78824	-119.01480	1124.04892	766.16379	-175.96888	1146.45042	831.90224	-107.19288	1143.78258	834.32045	-251.14668	892.89444	824.27963	-237.11246	885.48843	868.94852	-190.59305	879.56848	858.74466	-195.98156	928.08502	363.78246	-191.75594	892.23404	728.69301	-256.99986	422.16179	404.83047	-186.20632	453.74889	357.41020	-194.97114	431.26457	480.36999	-220.47832	445.54596	676.16554	-114.11779	473.77159	667.28485	-206.75983	443.38341	584.31587	-207.27001	181.57089	378.09830	-184.81184	176.15879	440.40859	-130.86682	176.60261	371.69853	-154.44814	163.15502	670.30624	-96.17556	167.05227	615.55824	-174.00057	174.27853	600.79395	-999.30336	1035.22263	468.88134	-984.65515	1041.12892	628.05676	-1142.51503	1036.36429	651.63612	-1122.66861	1041.86729	468.93364	-1062.23923	1382.05170	563.40504	-1201.38344	1405.09064	552.92797	-1012.44194	1596.15768	572.15942	-1157.95639	1554.20074	654.12552	-1155.88074	1555.51407	491.01624	-1138.76793	1348.28278	742.00829	-1112.08313	1056.07460	773.21907	-1172.76505	1047.68753	750.91095	-1109.84360	1045.47791	715.21713	-1081.26549	809.96552	798.43346	-1039.28391	821.91231	784.36325	-1046.18263	821.71112	746.75003	-1107.66441	1351.31927	384.60907	-1129.02634	1039.79233	367.10201	-1060.58548	1050.92361	387.57408	-1087.61734	1047.86972	340.77641	-1029.38782	825.03212	377.93152	-1032.67029	825.24094	336.95751	-989.38889	837.09587	346.52809	-1082.67929	875.53421	730.24246	-1057.23717	892.45506	391.89674	-1034.65111	453.70094	635.22621	-1139.19724	483.95809	684.81888	-1125.12833	484.75033	565.88581	-1022.89345	466.93619	509.84962	-1104.98215	478.50349	412.74902	-1129.24599	478.10528	536.69464	-1099.17381	164.32808	658.45299	-1135.48233	161.33675	594.32007	-1179.61197	151.49368	665.49042	-1069.60533	165.77879	458.24181	-1130.02060	166.60288	421.94382	-1129.73831	172.13825	510.88856 
